<mxfile host="app.diagrams.net" modified="2024-03-22T19:12:05.288Z" agent="Mozilla/5.0 (Macintosh; Intel Mac OS X 10_15_7) AppleWebKit/605.1.15 (KHTML, like Gecko) Version/17.3.1 Safari/605.1.15" version="24.0.8" etag="YfoYLJmYFNf7JxsADMdA" type="github">
  <diagram name="Page-1" id="R_zpKtpkGO2jwyrs7Jac">
    <mxGraphModel>
      <root>
        <mxCell id="0" />
        <mxCell id="1" parent="0" />
      </root>
    </mxGraphModel>
  </diagram>
</mxfile>
